<svg width="56" height="91" viewBox="0 0 56 91" fill="none" xmlns="http://www.w3.org/2000/svg">
<path d="M18.5434 11.1774C16.4382 8.10688 12.7052 6.69487 8.63853 7.35209C4.27404 7.95284 2.3742 11.5778 2.54365 14.561C1.97883 20.0448 6.72842 23.1152 10.7848 26.4014C14.1429 28.9019 16.3252 32.4088 17.7321 36.306C19.5446 41.343 21.1364 46.4211 22.7333 51.5402C23.4316 53.7841 24.0221 56.0689 24.7666 58.2819C26.1633 62.441 27.411 66.8669 26.8154 71.2929C26.1889 75.9192 22.0401 79.8472 24.4791 84.5607C28.0272 91.4154 37.8242 89.2178 38.8357 82.1372" stroke="#7DACBC" stroke-width="3.4984" stroke-miterlimit="10" stroke-linecap="round" stroke-linejoin="round"/>
<path d="M37.4288 80.2579C38.7124 82.0858 40.7047 83.5338 42.4043 84.0319C48.1038 85.2898 52.2937 81.7059 53.7673 76.6997C55.0253 71.0003 48.8945 68.3611 44.833 65.075C42.584 63.2573 40.1809 60.7003 39.3132 57.9174C38.7638 56.1562 38.2144 54.3899 37.665 52.6288C36.0937 47.5918 34.5276 42.5599 32.9564 37.5229C31.9449 34.283 30.9334 31.0431 29.927 27.798C29.5008 26.4322 29.0643 25.2307 28.9565 23.7879C28.7049 20.3991 29.6497 17.4724 30.9539 14.4122C32.0835 11.7576 32.8589 9.03112 31.3544 6.3406C27.5599 -0.4473 17.6653 2.19702 17.0748 9.52919" stroke="#7DACBC" stroke-width="3.4984" stroke-miterlimit="10" stroke-linecap="round" stroke-linejoin="round"/>
<path d="M38.9692 82.3741L38.0604 84.813L36.1092 87.0825L33.4597 88.7153L30.6767 88.8282L28.1504 88.2532L26.189 86.949L24.6075 84.8387L23.7449 82.0814L24.1865 78.5386L25.7577 74.7338L26.723 71.4169L26.8668 68.3926L26.4611 64.8344L25.5626 61.1683L18.2508 38.1038L16.5769 33.8472L14.2662 30.0528L11.0622 26.7923L7.5552 23.994L5.21892 21.8272L3.09315 18.7413L2.46671 14.6799L2.95451 11.3783L5.48591 8.31298L9.5218 7.48632L12.9928 7.59927L15.5243 8.59024L16.9979 9.63771L17.6603 7.04475L19.1801 4.85742L21.614 3.2811L25.2699 2.552L29.162 3.774L32.1042 7.81494L31.5599 12.7287L29.9681 16.8364L28.9514 20.98L29.0747 24.9285L30.6356 30.0117L38.6766 55.7873L40.5764 60.7678L43.5237 64.131L47.6006 67.2836L51.1949 70.0819L53.4183 73.1165L53.562 77.219L52.0832 80.2638L49.6083 82.8208L47.0307 84.2277L43.5699 84.3509L40.5559 83.3445L38.9692 82.3741Z" fill="#7DACBC"/>
</svg>
