<svg width="54" height="44" viewBox="0 0 54 44" fill="none" xmlns="http://www.w3.org/2000/svg">
<path d="M9.44334 30.0044C9.80277 27.509 10.6962 25.029 11.9902 22.9546C19.0658 11.5918 33.9461 11.864 41.6892 22.128C43.6815 24.7672 45.1962 28.043 45.5505 31.6064C45.9048 35.1647 44.9703 39.0002 42.7624 41.3723C40.5545 43.7394 37.0372 44.3145 34.6033 42.312C33.5918 41.4802 32.6162 40.3043 32 39.1593C31.3428 37.927 30.6804 36.6537 29.3146 36.0837C28.7293 35.8373 28.0874 35.7654 27.4559 35.7911C25.4379 35.8835 23.8102 36.8847 22.9116 38.6356C22.162 40.0887 21.3764 41.742 19.7898 42.4301C18.7063 42.9024 17.5048 42.8665 16.3803 42.579C10.4754 41.0643 8.65773 35.4984 9.44334 30.0044Z" fill="#f2726f"/>
<path d="M17.6537 0.932404C12.6679 2.78085 11.6256 10.0874 16.9451 12.2439C19.1993 13.1578 21.9874 12.5314 23.6357 10.7395C25.2839 8.94749 25.6741 6.11835 24.5753 3.94643C23.3687 1.57425 20.2467 -0.0277608 17.6537 0.932404Z" fill="#f2726f"/>
<path d="M33.5096 0.932404C28.5239 2.78085 27.4815 10.0874 32.8011 12.2439C35.0552 13.1578 37.8433 12.5314 39.4916 10.7395C41.1398 8.94749 41.53 6.11835 40.4312 3.94643C39.2194 1.57425 36.0975 -0.0277608 33.5096 0.932404Z" fill="#f2726f"/>
<path d="M46.6442 11.2068C42.4697 12.131 41.2322 17.702 44.3233 20.5773C46.6185 22.7133 50.7314 22.395 52.6672 19.9304C56.1588 15.4839 51.6967 10.0926 46.6442 11.2068Z" fill="#f2726f"/>
<path d="M5.03267 11.2068C0.858184 12.131 -0.37925 17.702 2.71182 20.5773C5.00702 22.7133 9.11988 22.395 11.0557 19.9304C14.5472 15.4839 10.0852 10.0926 5.03267 11.2068Z" fill="#f2726f"/>
</svg>
